<?xml version="1.0" standalone="no"?>
<!DOCTYPE svg PUBLIC "-//W3C//DTD SVG 20010904//EN"
 "http://www.w3.org/TR/2001/REC-SVG-20010904/DTD/svg10.dtd">
<svg version="1.0" xmlns="http://www.w3.org/2000/svg"
 width="512.000000pt" height="512.000000pt" viewBox="0 0 512.000000 512.000000"
 preserveAspectRatio="xMidYMid meet">
<metadata>
Created by potrace 1.14, written by Peter Selinger 2001-2017
</metadata>
<g transform="translate(0.000000,512.000000) scale(0.100000,-0.100000)"
fill="#000000" stroke="none">
<path d="M1819 4537 c-26 -14 -57 -42 -74 -68 -28 -41 -30 -50 -32 -149 -3
-204 54 -388 180 -575 55 -83 157 -196 232 -257 l62 -52 -31 -25 c-278 -227
-434 -516 -441 -821 -6 -218 52 -409 183 -605 47 -70 197 -230 260 -277 l33
-25 -55 -43 c-184 -141 -340 -377 -398 -602 -31 -119 -32 -316 -2 -373 47 -90
172 -132 260 -87 79 41 114 93 121 181 3 31 6 57 8 59 5 6 916 3 925 -3 4 -3
7 -17 5 -31 -12 -111 91 -224 203 -224 79 0 168 64 193 138 14 41 16 147 5
232 -8 67 -44 204 -63 240 -7 14 -13 30 -13 35 0 17 -90 166 -136 225 -56 71
-125 143 -198 205 l-58 49 28 24 c207 175 323 336 399 553 13 38 22 69 20 69
-2 0 1 15 6 33 21 72 27 191 15 305 -26 259 -185 535 -419 726 l-47 38 107
103 c214 204 332 424 361 675 20 165 -5 257 -84 311 -132 91 -310 4 -318 -156
-1 -20 -6 -20 -467 -23 l-467 -2 -6 44 c-21 137 -175 217 -297 153z m1084
-610 c8 -2 -73 -89 -129 -137 -40 -35 -150 -107 -174 -115 -34 -11 -186 93
-283 194 l-59 60 154 3 c157 3 477 0 491 -5z m-176 -809 c69 -50 152 -132 198
-192 36 -48 85 -137 85 -154 0 -4 -191 -8 -425 -8 -379 0 -425 2 -420 16 19
48 82 146 128 197 70 78 94 98 200 170 l92 62 45 -26 c25 -15 68 -44 97 -65z
m283 -770 c0 -19 -51 -107 -91 -159 -61 -79 -142 -153 -242 -220 l-88 -59 -57
36 c-124 79 -221 166 -287 259 -36 50 -85 136 -85 147 0 2 191 4 425 4 234 0
425 -4 425 -8z m-327 -953 c45 -30 109 -79 141 -110 l59 -55 -294 0 -294 1 65
61 c67 62 205 158 228 158 7 0 50 -25 95 -55z"/>
<path d="M1594 3690 c-51 -26 -83 -80 -79 -134 6 -73 76 -136 145 -130 87 7
134 56 134 140 0 111 -101 174 -200 124z"/>
<path d="M3432 1799 c-51 -10 -100 -63 -108 -115 -23 -158 193 -229 264 -86
54 106 -40 226 -156 201z"/>
</g>
</svg>
